Coordinates
version=1
nRows=54
nColumns=12
inDegrees=yes

Units are S.I. units (second, meters, Newtons, ...)
Angles are in degrees

endheader
time	SC_y	SC_z	SC_x	AC_y	AC_z	AC_x	GH_y	GH_z	GH_yy	EL_x	PS_y
       0.0              -20.31          38.81          11.06          37.62         -7.388          0.874          24.46          39.98          65.06          102.7          49.53
    0.0379              -20.31          38.81          11.07          37.62         -7.388         0.8757          24.46          39.98          65.02          102.7          49.54
    0.0758              -20.31           38.8          11.07          37.62         -7.387         0.8775          24.45          39.98          64.98          102.7          49.55
    0.1137              -20.31           38.8          11.08          37.62         -7.386         0.8793          24.45          39.99          64.95          102.7          49.56
    0.1516              -20.31          38.79          11.08          37.62         -7.385         0.8813          24.45          39.99           64.9          102.6          49.57
    0.1895              -20.31          38.78          11.09          37.61         -7.384         0.8835          24.45          39.99          64.86          102.6          49.59
    0.2274              -20.31          38.78          11.09          37.61         -7.383         0.8858          24.45          39.99          64.81          102.6           49.6
    0.2653              -20.31          38.77           11.1          37.61         -7.382         0.8882          24.45          39.99          64.76          102.6          49.61
    0.3032              -20.31          38.76          11.11          37.61         -7.381         0.8908          24.44          39.99           64.7          102.6          49.63
    0.3411              -20.31          38.76          11.11          37.61          -7.38         0.8936          24.44          39.99          64.64          102.6          49.64
     0.379              -20.32          38.75          11.12          37.61         -7.379         0.8966          24.44          39.99          64.58          102.6          49.66
    0.4169              -20.32          38.74          11.13          37.61         -7.378         0.8998          24.44          39.99          64.51          102.5          49.68
    0.4548              -20.32          38.73          11.14          37.61         -7.376         0.9033          24.44          39.99          64.44          102.5           49.7
    0.4927              -20.32          38.72          11.15          37.61         -7.375         0.9071          24.43          39.99          64.36          102.5          49.72
    0.5306              -20.32          38.71          11.16           37.6         -7.373         0.9112          24.43          39.99          64.27          102.5          49.74
    0.5685              -20.32           38.7          11.17           37.6         -7.371         0.9156          24.43          39.99          64.17          102.4          49.76
    0.6064              -20.32          38.69          11.18           37.6         -7.369         0.9204          24.42          39.99          64.07          102.4          49.79
    0.6443              -20.32          38.67           11.2           37.6         -7.367         0.9256          24.42          39.99          63.96          102.4          49.82
    0.6822              -20.32          38.66          11.21           37.6         -7.365         0.9313          24.41          39.99          63.84          102.3          49.85
    0.7201              -20.32          38.64          11.23          37.59         -7.362         0.9376          24.41          39.99          63.71          102.3          49.88
     0.758              -20.32          38.62          11.24          37.59         -7.359         0.9444           24.4          39.99          63.56          102.3          49.92
    0.7959              -20.32           38.6          11.26          37.59         -7.356          0.952           24.4          39.99           63.4          102.2          49.96
    0.8338              -20.33          38.58          11.28          37.59         -7.353         0.9604          24.39          39.99          63.22          102.2          50.01
    0.8717              -20.33          38.56          11.31          37.58         -7.349         0.9696          24.38          39.99          63.03          102.1          50.06
    0.9096              -20.33          38.53          11.33          37.58         -7.345         0.9799          24.38          39.99          62.81          102.1          50.12
    0.9475              -20.33           38.5          11.36          37.57          -7.34         0.9914          24.37          39.99          62.56          102.0          50.18
    0.9854              -20.33          38.46           11.4          37.57         -7.335          1.004          24.36          39.99          62.29          101.9          50.25
     1.023              -20.34          38.42          11.43          37.56         -7.329          1.019          24.35          39.99          61.98          101.8          50.33
     1.061              -20.34          38.38          11.48          37.56         -7.322          1.035          24.33          39.99          61.63          101.7          50.42
     1.099              -20.34          38.33          11.52          37.55         -7.315          1.054          24.32          39.99          61.24          101.6          50.52
     1.137              -20.35          38.28          11.58          37.54         -7.306          1.075           24.3           40.0          60.79          101.5          50.64
     1.175              -20.35          38.21          11.64          37.53         -7.296          1.099          24.29           40.0          60.27          101.4          50.77
     1.213              -20.36          38.14          11.71          37.52         -7.285          1.127          24.26           40.0          59.68          101.2          50.92
     1.251              -20.36          38.05          11.79          37.51         -7.271           1.16          24.24           40.0          58.98          101.0           51.1
     1.289              -20.37          37.95          11.89           37.5         -7.256          1.198          24.21           40.0          58.17          100.8          51.31
     1.327              -20.38          37.83          12.01          37.48         -7.238          1.243          24.18          40.01          57.22          100.5          51.56
     1.364              -20.39          37.69          12.14          37.46         -7.216          1.296          24.13          40.01          56.08          100.2          51.85
     1.402               -20.4          37.52          12.31          37.44         -7.189           1.36          24.09          40.01          54.72          99.81           52.2
      1.44              -20.41          37.31          12.51          37.41         -7.158          1.438          24.03          40.02          53.07          99.35          52.63
     1.478              -20.43          37.06          12.75          37.37         -7.119          1.532          23.95          40.02          51.06          98.79          53.15
     1.516              -20.45          36.75          13.05          37.33         -7.071          1.649          23.86          40.03          48.57           98.1          53.79
     1.554              -20.47          36.36          13.42          37.27         -7.012          1.795          23.75          40.04          45.47          97.24          54.59
     1.592              -20.51          35.87          13.89           37.2         -6.937          1.978          23.61          40.05          41.57          96.15          55.59
      1.63              -20.55          35.25          14.49          37.12         -6.841          2.212          23.43          40.06          36.61          94.77          56.87
     1.668               -20.6          34.45          15.25          37.01         -6.719           2.51          23.21          40.08          30.26           93.0          58.51
     1.706              -20.67          33.43          16.23          36.86         -6.563          2.894          22.91           40.1          22.11          90.74          60.61
     1.743              -20.76          32.13          17.48          36.68         -6.363          3.383          22.54          40.13           11.7          87.84           63.3
     1.781              -20.87          30.49          19.06          36.45         -6.111          3.999          22.07          40.16         -1.393           84.2          66.68
     1.819               -21.0           28.5          20.98          36.17         -5.805          4.749           21.5           40.2         -17.34          79.76          70.79
     1.857              -21.15          26.18           23.2          35.84         -5.449          5.618          20.83          40.25         -35.83          74.62          75.56
     1.895              -21.32          23.67          25.61          35.49         -5.065          6.559          20.11          40.31         -55.85          69.05          80.72
     1.933              -21.49          21.17          28.02          35.14          -4.68          7.501          19.39          40.36         -75.87          63.48          85.89
     1.971              -21.64          18.85          30.25          34.81         -4.324           8.37          18.73          40.41         -94.36          58.33          90.66
     2.009              -21.78          16.86          32.17          34.53         -4.018           9.12          18.15          40.45         -110.3          53.89          94.77
